<mxfile host="65bd71144e">
    <diagram id="HQ5CgxtLUwwWuNWUyAZb" name="第 1 页">
        <mxGraphModel dx="896" dy="607" grid="0" gridSize="10" guides="1" tooltips="1" connect="1" arrows="1" fold="1" page="1" pageScale="1" pageWidth="1169" pageHeight="827" background="#ffffff" math="0" shadow="0">
            <root>
                <mxCell id="0"/>
                <mxCell id="1" parent="0"/>
                <mxCell id="3" value="&lt;font color=&quot;#000000&quot;&gt;渲染主线程&lt;/font&gt;" style="rounded=1;whiteSpace=wrap;html=1;fillColor=#1ba1e2;fontColor=#ffffff;strokeColor=#006EAF;fontSize=20;labelBackgroundColor=none;" parent="1" vertex="1">
                    <mxGeometry x="115" y="159" width="120" height="60" as="geometry"/>
                </mxCell>
                <mxCell id="4" value="" style="rounded=1;whiteSpace=wrap;html=1;fillColor=#1ba1e2;fontColor=#ffffff;strokeColor=#006EAF;fontSize=20;" parent="1" vertex="1">
                    <mxGeometry x="265" y="159" width="589" height="60" as="geometry"/>
                </mxCell>
                <mxCell id="18" style="edgeStyle=none;html=1;fontSize=20;fontColor=#000000;" parent="1" source="4" target="4" edge="1">
                    <mxGeometry relative="1" as="geometry"/>
                </mxCell>
                <mxCell id="30" style="edgeStyle=none;html=1;exitX=0.5;exitY=1;exitDx=0;exitDy=0;entryX=0;entryY=0.5;entryDx=0;entryDy=0;strokeColor=#000000;fontSize=20;fontColor=#000000;" parent="1" source="5" target="29" edge="1">
                    <mxGeometry relative="1" as="geometry">
                        <Array as="points">
                            <mxPoint x="331" y="256"/>
                            <mxPoint x="23" y="256"/>
                            <mxPoint x="27" y="489"/>
                        </Array>
                    </mxGeometry>
                </mxCell>
                <mxCell id="5" value="&lt;font color=&quot;#000000&quot;&gt;计时开始&lt;/font&gt;" style="rounded=1;whiteSpace=wrap;html=1;fillColor=#D3E4FB;fontColor=#ffffff;strokeColor=#006EAF;fontSize=20;labelBackgroundColor=none;" parent="1" vertex="1">
                    <mxGeometry x="283" y="169.5" width="95" height="39" as="geometry"/>
                </mxCell>
                <mxCell id="8" value="" style="rounded=1;whiteSpace=wrap;html=1;fillColor=none;fontColor=#ffffff;strokeColor=#006EAF;fontSize=20;" parent="1" vertex="1">
                    <mxGeometry x="265" y="275" width="589" height="60" as="geometry"/>
                </mxCell>
                <mxCell id="9" value="&lt;font color=&quot;#000000&quot;&gt;任务&lt;/font&gt;" style="rounded=1;whiteSpace=wrap;html=1;fillColor=#D3E4FB;fontColor=#ffffff;strokeColor=#006EAF;fontSize=20;labelBackgroundColor=none;" parent="1" vertex="1">
                    <mxGeometry x="283" y="285.5" width="81" height="39" as="geometry"/>
                </mxCell>
                <mxCell id="10" value="&lt;font color=&quot;#000000&quot;&gt;任务&lt;/font&gt;" style="rounded=1;whiteSpace=wrap;html=1;fillColor=#D3E4FB;fontColor=#ffffff;strokeColor=#006EAF;fontSize=20;labelBackgroundColor=none;" parent="1" vertex="1">
                    <mxGeometry x="406" y="285.5" width="81" height="39" as="geometry"/>
                </mxCell>
                <mxCell id="11" value="&lt;font color=&quot;#000000&quot;&gt;任务&lt;/font&gt;" style="rounded=1;whiteSpace=wrap;html=1;fillColor=#D3E4FB;fontColor=#ffffff;strokeColor=#006EAF;fontSize=20;labelBackgroundColor=none;" parent="1" vertex="1">
                    <mxGeometry x="523" y="285.5" width="81" height="39" as="geometry"/>
                </mxCell>
                <mxCell id="12" value="&lt;font color=&quot;#000000&quot;&gt;任务&lt;/font&gt;" style="rounded=1;whiteSpace=wrap;html=1;fillColor=none;fontColor=#ffffff;strokeColor=#006EAF;fontSize=20;labelBackgroundColor=none;dashed=1;" parent="1" vertex="1">
                    <mxGeometry x="640" y="285.5" width="81" height="39" as="geometry"/>
                </mxCell>
                <mxCell id="23" value="&lt;font color=&quot;#000000&quot;&gt;消息队列&lt;/font&gt;" style="rounded=1;whiteSpace=wrap;html=1;fillColor=none;fontColor=#ffffff;strokeColor=#006EAF;fontSize=20;labelBackgroundColor=none;" parent="1" vertex="1">
                    <mxGeometry x="115" y="275" width="120" height="60" as="geometry"/>
                </mxCell>
                <mxCell id="29" value="&lt;font color=&quot;#000000&quot;&gt;计时线程&lt;/font&gt;" style="rounded=1;whiteSpace=wrap;html=1;fillColor=#FFB366;fontColor=#ffffff;strokeColor=#006EAF;fontSize=20;labelBackgroundColor=none;" parent="1" vertex="1">
                    <mxGeometry x="115" y="459" width="120" height="60" as="geometry"/>
                </mxCell>
                <mxCell id="32" value="&lt;font style=&quot;font-size: 16px;&quot;&gt;①通知计时线程计时&lt;/font&gt;" style="text;html=1;align=center;verticalAlign=middle;resizable=0;points=[];autosize=1;strokeColor=none;fillColor=none;fontSize=20;fontColor=#000000;" parent="1" vertex="1">
                    <mxGeometry x="91" y="226" width="162" height="36" as="geometry"/>
                </mxCell>
                <mxCell id="34" value="" style="rounded=1;whiteSpace=wrap;html=1;fillColor=none;fontColor=#ffffff;strokeColor=#006EAF;fontSize=20;" parent="1" vertex="1">
                    <mxGeometry x="269" y="459" width="589" height="60" as="geometry"/>
                </mxCell>
                <mxCell id="35" value="&lt;font color=&quot;#000000&quot;&gt;计时开始&lt;/font&gt;" style="rounded=1;whiteSpace=wrap;html=1;fillColor=#D3E4FB;fontColor=#ffffff;strokeColor=#006EAF;fontSize=20;labelBackgroundColor=none;" parent="1" vertex="1">
                    <mxGeometry x="283" y="468" width="120" height="39" as="geometry"/>
                </mxCell>
                <mxCell id="42" style="edgeStyle=none;html=1;exitX=0.5;exitY=0;exitDx=0;exitDy=0;entryX=0.5;entryY=1;entryDx=0;entryDy=0;strokeColor=#000000;" edge="1" parent="1" source="36" target="12">
                    <mxGeometry relative="1" as="geometry"/>
                </mxCell>
                <mxCell id="36" value="&lt;font color=&quot;#000000&quot;&gt;计时结束&lt;/font&gt;" style="rounded=1;whiteSpace=wrap;html=1;fillColor=#D3E4FB;fontColor=#ffffff;strokeColor=#006EAF;fontSize=20;labelBackgroundColor=none;" parent="1" vertex="1">
                    <mxGeometry x="620.5" y="469.5" width="120" height="39" as="geometry"/>
                </mxCell>
                <mxCell id="37" value="&lt;font color=&quot;#000000&quot;&gt;计时中...&lt;/font&gt;" style="rounded=1;whiteSpace=wrap;html=1;fillColor=#FFB366;fontColor=#ffffff;strokeColor=#006EAF;fontSize=20;labelBackgroundColor=none;" parent="1" vertex="1">
                    <mxGeometry x="419" y="468" width="185" height="39" as="geometry"/>
                </mxCell>
                <mxCell id="40" value="&lt;span style=&quot;font-size: 16px;&quot;&gt;②获取下一个任务执行&lt;/span&gt;" style="text;html=1;align=center;verticalAlign=middle;resizable=0;points=[];autosize=1;strokeColor=none;fillColor=none;fontSize=20;fontColor=#000000;" parent="1" vertex="1">
                    <mxGeometry x="257" y="355" width="178" height="36" as="geometry"/>
                </mxCell>
                <mxCell id="41" value="&lt;font style=&quot;font-size: 16px;&quot;&gt;③计时任务结束后，将回调&amp;nbsp; 函数放入到消息队列末尾&lt;/font&gt;" style="text;html=1;align=center;verticalAlign=middle;resizable=0;points=[];autosize=1;strokeColor=none;fillColor=none;fontSize=20;fontColor=#000000;" parent="1" vertex="1">
                    <mxGeometry x="474" y="423" width="395" height="36" as="geometry"/>
                </mxCell>
            </root>
        </mxGraphModel>
    </diagram>
</mxfile>